<!-- Generated by IcoMoon.io -->
<svg version="1.1" xmlns="http://www.w3.org/2000/svg" width="32" height="32" viewBox="0 0 32 32">
<title>account</title>
<path fill="#fff" d="M16 1.186c-8.178 0-14.815 6.637-14.815 14.815s6.637 14.815 14.815 14.815c8.178 0 14.815-6.637 14.815-14.815s-6.637-14.815-14.815-14.815zM16 7.112c2.859 0 5.185 2.326 5.185 5.185s-2.326 5.185-5.185 5.185c-2.859 0-5.185-2.326-5.185-5.185s2.326-5.185 5.185-5.185zM16 27.852c-3.007 0-6.563-1.215-9.096-4.267 2.595-2.036 5.798-3.143 9.096-3.143s6.501 1.107 9.096 3.143c-2.533 3.052-6.089 4.267-9.096 4.267z"></path>
</svg>
