<!-- Generated by IcoMoon.io -->
<svg version="1.1" xmlns="http://www.w3.org/2000/svg" width="32" height="32" viewBox="0 0 32 32">
<title>cross</title>
<path d="M18.193 15.999l12.896-12.896c0.255-0.298 0.388-0.68 0.373-1.072s-0.178-0.763-0.455-1.040-0.648-0.439-1.040-0.454c-0.392-0.015-0.774 0.118-1.072 0.373l-12.895 12.896-12.896-12.911c-0.293-0.293-0.69-0.457-1.104-0.457s-0.812 0.165-1.104 0.457c-0.293 0.293-0.457 0.69-0.457 1.104s0.165 0.812 0.457 1.104l12.911 12.896-12.911 12.896c-0.163 0.139-0.295 0.311-0.388 0.504s-0.146 0.403-0.154 0.617c-0.008 0.214 0.028 0.428 0.106 0.628s0.197 0.381 0.348 0.532c0.152 0.152 0.333 0.27 0.532 0.348s0.413 0.114 0.627 0.106c0.214-0.008 0.424-0.061 0.617-0.154s0.365-0.226 0.504-0.388l12.911-12.896 12.895 12.896c0.298 0.255 0.68 0.388 1.072 0.373s0.763-0.177 1.040-0.454 0.439-0.648 0.455-1.040c0.015-0.391-0.118-0.774-0.373-1.072l-12.896-12.896z"></path>
</svg>
