<!-- Generated by IcoMoon.io -->
<svg version="1.1" xmlns="http://www.w3.org/2000/svg" width="32" height="32" viewBox="0 0 32 32">
<title>delete</title>
<path opacity="0.6000000238418579" fill="#000" d="M13.778 4.889h4.444c0-0.589-0.234-1.155-0.651-1.571s-0.982-0.651-1.571-0.651c-0.589 0-1.155 0.234-1.571 0.651s-0.651 0.982-0.651 1.571zM11.556 4.889c0-1.179 0.468-2.309 1.302-3.143s1.964-1.302 3.143-1.302c1.179 0 2.309 0.468 3.143 1.302s1.302 1.964 1.302 3.143h8.889c0.295 0 0.577 0.117 0.786 0.325s0.326 0.491 0.326 0.786-0.117 0.577-0.326 0.786c-0.208 0.208-0.491 0.325-0.786 0.325h-1.253l-2.678 19.64c-0.181 1.331-0.839 2.551-1.851 3.434s-2.31 1.37-3.653 1.37h-7.796c-1.343 0-2.641-0.487-3.653-1.37s-1.67-2.103-1.851-3.434l-2.678-19.64h-1.253c-0.295 0-0.577-0.117-0.786-0.325s-0.325-0.491-0.325-0.786c0-0.295 0.117-0.577 0.325-0.786s0.491-0.325 0.786-0.325h8.889zM13.778 12.667c0-0.295-0.117-0.577-0.325-0.786s-0.491-0.325-0.786-0.325c-0.295 0-0.577 0.117-0.786 0.325s-0.325 0.491-0.325 0.786v11.111c0 0.295 0.117 0.577 0.325 0.786s0.491 0.326 0.786 0.326 0.577-0.117 0.786-0.326c0.208-0.208 0.325-0.491 0.325-0.786v-11.111zM19.333 11.556c-0.295 0-0.577 0.117-0.786 0.325s-0.326 0.491-0.326 0.786v11.111c0 0.295 0.117 0.577 0.326 0.786s0.491 0.326 0.786 0.326 0.577-0.117 0.786-0.326c0.209-0.208 0.326-0.491 0.326-0.786v-11.111c0-0.295-0.117-0.577-0.326-0.786s-0.491-0.325-0.786-0.325z"></path>
</svg>
