<!-- Generated by IcoMoon.io -->
<svg version="1.1" xmlns="http://www.w3.org/2000/svg" width="32" height="32" viewBox="0 0 32 32">
<title>female</title>
<path fill="#ff8787" d="M16 0c-5.676 0-10.279 4.603-10.279 10.279 0 4.546 2.953 8.403 7.044 9.759 0.728 0.241 1.277 0.887 1.277 1.654v0.388c0 0.884-0.716 1.6-1.6 1.6h-1.208c-0.884 0-1.6 0.716-1.6 1.6v0.713c0 0.884 0.716 1.6 1.6 1.6h1.208c0.884 0 1.6 0.716 1.6 1.6v1.206c0 0.884 0.716 1.6 1.6 1.6h0.713c0.884 0 1.6-0.716 1.6-1.6v-1.206c0-0.884 0.716-1.6 1.6-1.6h1.208c0.884 0 1.6-0.716 1.6-1.6v-0.713c0-0.884-0.716-1.6-1.6-1.6h-1.208c-0.884 0-1.6-0.716-1.6-1.6v-1.709c4.741-0.914 8.323-5.085 8.323-10.093 0-5.676-4.603-10.279-10.279-10.279zM16 4.087c3.42 0 6.192 2.772 6.192 6.192s-2.772 6.192-6.192 6.192-6.192-2.772-6.192-6.192c0-3.419 2.772-6.192 6.192-6.192z"></path>
</svg>
