<!-- Generated by IcoMoon.io -->
<svg version="1.1" xmlns="http://www.w3.org/2000/svg" width="32" height="32" viewBox="0 0 32 32">
<title>log-out</title>
<path fill="#f59256" stroke="#f59256" stroke-linejoin="miter" stroke-linecap="butt" stroke-miterlimit="4" stroke-width="1.7778" d="M27.209 11.682l0-0c0.141-0.141 0.369-0.141 0.511 0l2.799 2.799c0.871 0.871 0.871 2.291 0 3.162l-2.799 2.799c-0.071 0.071-0.162 0.106-0.255 0.106s-0.184-0.035-0.255-0.106h-0c-0.141-0.141-0.141-0.369 0-0.51l3.508-3.509h-17.155c-0.2 0-0.361-0.162-0.361-0.361s0.162-0.361 0.361-0.361h17.155l-3.508-3.509c-0.141-0.141-0.141-0.369 0-0.51zM21.736 24.5v2.5c0 2.266-1.845 4.111-4.111 4.111h-12.563c-2.266 0-4.111-1.845-4.111-4.111v-22c0-2.266 1.845-4.111 4.111-4.111h12.563c2.266 0 4.111 1.845 4.111 4.111v2.5c0 0.2-0.162 0.361-0.361 0.361s-0.361-0.162-0.361-0.361v-2.5c0-1.869-1.519-3.389-3.389-3.389h-12.563c-1.869 0-3.389 1.52-3.389 3.389v22c0 1.869 1.52 3.389 3.389 3.389h12.563c1.869 0 3.389-1.52 3.389-3.389v-2.5c0-0.199 0.162-0.361 0.361-0.361s0.361 0.162 0.361 0.361z"></path>
</svg>
