<!-- Generated by IcoMoon.io -->
<svg version="1.1" xmlns="http://www.w3.org/2000/svg" width="32" height="32" viewBox="0 0 32 32">
<title>male</title>
<path fill="#23c2ef" d="M21.199 0c-0.982 0-1.778 0.796-1.778 1.778v0.9c0 0.982 0.796 1.778 1.778 1.778h3.115l-6.45 6.367c-1.81-1.164-3.967-1.839-6.283-1.839-6.396 0-11.581 5.152-11.581 11.508s5.186 11.509 11.581 11.509c6.396 0 11.58-5.153 11.58-11.509 0-2.416-0.749-4.658-2.029-6.509l6.342-6.302v3.042c0 0.982 0.796 1.778 1.778 1.778h0.928c0.982 0 1.778-0.796 1.78-1.777 0.008-2.891 0.030-6.059 0.037-8.945 0.002-0.982-0.794-1.777-1.775-1.777h-9.023zM11.581 13.615c3.822 0 6.919 3.078 6.919 6.876s-3.097 6.877-6.919 6.877c-3.822 0-6.92-3.079-6.92-6.877s3.098-6.876 6.92-6.876z"></path>
</svg>
