<!-- Generated by IcoMoon.io -->
<svg version="1.1" xmlns="http://www.w3.org/2000/svg" width="32" height="32" viewBox="0 0 32 32">
<title>pen2</title>
<path opacity="0.6000000238418579" fill="#000" d="M3.061 30.454c-0.21-0-0.418-0.044-0.61-0.129s-0.365-0.209-0.506-0.364c-0.144-0.154-0.254-0.337-0.323-0.536s-0.094-0.411-0.075-0.621l0.371-4.082 17.148-17.142 5.359 5.358-17.144 17.141-4.082 0.371c-0.046 0.004-0.092 0.006-0.138 0.006zM25.494 11.865l-5.358-5.358 3.214-3.214c0.141-0.141 0.308-0.253 0.492-0.329s0.381-0.115 0.58-0.115c0.199 0 0.396 0.039 0.58 0.115s0.351 0.188 0.492 0.329l3.214 3.214c0.141 0.141 0.253 0.308 0.329 0.492s0.116 0.381 0.116 0.58c0 0.199-0.039 0.396-0.116 0.58s-0.188 0.351-0.329 0.492l-3.214 3.214z"></path>
</svg>
