<!-- Generated by IcoMoon.io -->
<svg version="1.1" xmlns="http://www.w3.org/2000/svg" width="30" height="32" viewBox="0 0 30 32">
<title>photo</title>
<path fill="#f59256" d="M15.158 12.983c-2.519 0-4.561 2.042-4.561 4.561s2.042 4.562 4.561 4.562 4.561-2.042 4.561-4.562c0-2.519-2.042-4.561-4.561-4.561z"></path>
<path fill="#f59256" d="M11.298 0.351c-1.938 0-3.509 1.571-3.509 3.509v0.251c0 0.637-0.516 1.153-1.153 1.153-3.627 0-6.566 2.94-6.566 6.566v6.471c0 2.25-0 4.014 0.134 5.424 0.137 1.437 0.42 2.613 1.055 3.65 0.665 1.086 1.578 1.999 2.664 2.664 1.037 0.635 2.213 0.919 3.65 1.055 1.409 0.134 3.173 0.134 5.424 0.134h4.321c2.25 0 4.015 0 5.424-0.134 1.436-0.137 2.613-0.42 3.65-1.055 1.086-0.665 1.999-1.578 2.664-2.664 0.635-1.037 0.919-2.213 1.055-3.65 0.134-1.409 0.134-3.173 0.134-5.424v-6.471c0-3.627-2.94-6.566-6.566-6.566-0.637 0-1.153-0.516-1.153-1.153v-0.251c0-1.938-1.571-3.509-3.509-3.509h-7.719zM8.491 17.544c0-3.682 2.985-6.667 6.667-6.667s6.667 2.985 6.667 6.667c0 3.682-2.985 6.667-6.667 6.667s-6.667-2.985-6.667-6.667zM23.579 13.334c-0.775 0-1.403-0.628-1.403-1.403s0.628-1.404 1.403-1.404c0.775 0 1.404 0.628 1.404 1.404s-0.628 1.403-1.404 1.403z"></path>
</svg>
