<svg xmlns="http://www.w3.org/2000/svg" width="1280" height="400" fill="none"><g clip-path="url(#a)"><path fill="url(#b)" d="M1095.8 43.298c15.43 6.37 30.01 14.015 44.15 22.933 94.73 58.606 154.74 172.844 137.17 281.987-18 110.841-136.31 268.396-253.33 291.329-38.155 7.644-77.162-2.973-114.455-14.439-62.583-19.111-121.309-50.112-183.035-67.949-24.004-6.794-50.152-8.493-73.3.85-40.293 16.137-50.152 50.961-67.298 86.209-19.29 39.92-51.867 73.47-91.303 94.279-81.016 42.468-185.607 22.508-260.622-23.357-111.449-67.949-151.314-201.723-114.45-323.181 9.43-31.426 24.433-62.427 49.295-84.511 42.437-38.221 106.306-45.016 162.031-31.001 38.579 9.767 73.728 28.453 107.163 48.838 27.434 16.987 52.725 40.344 86.588 40.344 68.585.425 89.589-87.059 111.45-135.897 28.72-64.551 77.158-121.033 137.169-158.83C869.899 9.325 990.351-1.292 1095.8 43.299Z"/><path fill="url(#c)" d="M1095.84 43.557c15.42 6.368 29.99 14.011 44.13 22.927 94.68 58.594 154.67 172.809 137.1 281.93-17.99 110.818-136.25 268.342-253.21 291.27-38.137 7.642-77.126-2.972-114.402-14.436-62.554-19.107-121.252-50.102-182.949-67.935-23.994-6.794-50.129-8.492-73.266.849-40.274 16.135-50.129 50.951-67.267 86.192-19.28 39.912-51.843 73.455-91.26 94.26-80.978 42.459-185.521 22.503-260.5-23.353C122.818 647.326 82.972 513.58 119.819 392.147c9.426-31.42 24.422-62.415 49.272-84.494 42.417-38.214 106.256-45.007 161.955-30.995 38.561 9.765 73.694 28.447 107.114 48.828 27.421 16.983 52.699 40.336 86.547 40.336 68.553.424 89.547-87.041 111.398-135.87 28.707-64.538 77.122-121.008 137.105-158.797 96.831-61.566 217.226-72.18 322.63-27.598Z"/><path fill="url(#d)" d="M86.32 915.588C-107.43 770.773 5.733 451.839 192.198 354.163c69.87-36.522 151.314-50.537 229.758-40.344 70.728 9.342 159.03 33.124 231.473 5.945 54.867-20.809 80.158-72.195 108.878-118.91 79.729-129.952 280.763-154.158 380.643-31.001 36.87 45.44 51.87 108.717 33.86 164.35-42.43 129.102-184.745 73.894-265.332 143.117-32.149 27.604-40.722 82.812-59.583 119.759-19.289 37.796-42.865 73.894-68.156 108.293-53.153 72.62-117.879 138.87-192.465 190.256C442.531 998.4 256.496 1028.98 99.18 924.931c-4.287-2.973-8.573-5.946-12.86-9.343Z"/><path fill="url(#e)" d="M86.32 915.588C-107.43 770.773 5.733 451.839 192.198 354.163c69.87-36.522 151.314-50.537 229.758-40.344 70.728 9.342 159.03 33.124 231.473 5.945 54.867-20.809 80.158-72.195 108.878-118.91 79.729-129.952 280.763-154.158 380.643-31.001 36.87 45.44 51.87 108.717 33.86 164.35-42.43 129.102-184.745 73.894-265.332 143.117-32.149 27.604-40.722 82.812-59.583 119.759-19.289 37.796-42.865 73.894-68.156 108.293-53.153 72.62-117.879 138.87-192.465 190.256C442.531 998.4 256.496 1028.98 99.18 924.931c-4.287-2.973-8.573-5.946-12.86-9.343Z"/></g><g clip-path="url(#f)"><path fill="url(#g)" d="M-24.334 855.097c-176.311-133.024-73.333-425.988 96.346-515.711 63.581-33.549 137.693-46.422 209.075-37.06 64.361 8.583 144.715 30.428 210.636 5.462 49.929-19.115 72.943-66.317 99.077-109.228 72.552-119.37 255.493-141.606 346.379-28.477 33.545 41.741 47.198 99.865 30.815 150.968-38.617 118.59-168.119 67.877-241.451 131.464-29.255 25.356-37.056 76.069-54.219 110.008-17.553 34.718-39.007 67.877-62.021 99.475-48.368 66.707-107.268 127.562-175.139 174.764-135.353 94.404-304.642 122.491-447.796 26.917-3.901-2.731-7.802-5.461-11.702-8.582Z"/><path fill="url(#h)" d="M-24.334 855.097c-176.311-133.024-73.333-425.988 96.346-515.711 63.581-33.549 137.693-46.422 209.075-37.06 64.361 8.583 144.715 30.428 210.636 5.462 49.929-19.115 72.943-66.317 99.077-109.228 72.552-119.37 255.493-141.606 346.379-28.477 33.545 41.741 47.198 99.865 30.815 150.968-38.617 118.59-168.119 67.877-241.451 131.464-29.255 25.356-37.056 76.069-54.219 110.008-17.553 34.718-39.007 67.877-62.021 99.475-48.368 66.707-107.268 127.562-175.139 174.764-135.353 94.404-304.642 122.491-447.796 26.917-3.901-2.731-7.802-5.461-11.702-8.582Z"/><path fill="url(#i)" d="M68.5 152C48.342 152 32 135.658 32 115.5S48.342 79 68.5 79 105 95.342 105 115.5 88.658 152 68.5 152Z"/><path fill="url(#j)" d="M289.5 269c-17.397 0-31.5-14.103-31.5-31.5s14.103-31.5 31.5-31.5 31.5 14.103 31.5 31.5-14.103 31.5-31.5 31.5Z"/></g><defs><linearGradient id="b" x1="40.366" x2="1657.4" y1="776.404" y2="-115" gradientUnits="userSpaceOnUse"><stop stop-color="#FF9370"/><stop offset="1" stop-color="#FFDF00"/></linearGradient><linearGradient id="d" x1="1161.45" x2="133.503" y1="-450.926" y2="1208.7" gradientUnits="userSpaceOnUse"><stop stop-color="#FFDF00"/><stop offset="1" stop-color="#FF9370"/></linearGradient><linearGradient id="g" x1="954.014" x2="5.837" y1="-400.149" y2="1116.36" gradientUnits="userSpaceOnUse"><stop stop-color="#FFDF00"/><stop offset="1" stop-color="#FF9370"/></linearGradient><linearGradient id="i" x1="-16.768" x2="157.273" y1="175.573" y2="52.645" gradientUnits="userSpaceOnUse"><stop stop-color="#EC4C76"/><stop offset=".704" stop-color="#FEBB40"/><stop offset="1" stop-color="#fff"/></linearGradient><linearGradient id="j" x1="215.913" x2="366.113" y1="289.344" y2="183.255" gradientUnits="userSpaceOnUse"><stop stop-color="#EC4C76"/><stop offset=".518" stop-color="#FEBB40"/><stop offset="1" stop-color="#fff"/></linearGradient><radialGradient id="c" cx="0" cy="0" r="1" gradientTransform="rotate(79.626 408.776 369.406) scale(1313.6 1235.52)" gradientUnits="userSpaceOnUse"><stop stop-color="#FEBB40"/><stop offset=".558" stop-color="#EC4C76"/><stop offset=".973" stop-color="#D60B52"/></radialGradient><radialGradient id="e" cx="0" cy="0" r="1" gradientTransform="rotate(-122.724 472.734 -153.6) scale(1401.84 2365.81)" gradientUnits="userSpaceOnUse"><stop stop-color="#FEBB40"/><stop offset=".558" stop-color="#EC4C76"/><stop offset=".973" stop-color="#D60B52"/></radialGradient><radialGradient id="h" cx="0" cy="0" r="1" gradientTransform="rotate(-122.48 383.178 -104.896) scale(1284.19 2158.72)" gradientUnits="userSpaceOnUse"><stop stop-color="#FEBB40"/><stop offset=".558" stop-color="#EC4C76"/><stop offset=".973" stop-color="#D60B52"/></radialGradient><clipPath id="a"><path fill="#fff" d="M769 16h511v393H769z"/></clipPath><clipPath id="f"><path fill="#fff" d="M1062 0H-116v538h1178z"/></clipPath></defs></svg>