<svg width="26" height="40" viewBox="0 0 26 40" fill="none" xmlns="http://www.w3.org/2000/svg">
<path d="M13.0001 0C5.90463 0 0.151367 5.75327 0.151367 12.8487C0.151367 18.5312 3.8423 23.3529 8.95666 25.048C9.86645 25.3495 10.5532 26.1572 10.5532 27.1157V27.6007C10.5532 28.7052 9.65777 29.6007 8.5532 29.6007H7.0427C5.93813 29.6007 5.0427 30.4961 5.0427 31.6007V32.492C5.0427 33.5966 5.93813 34.492 7.0427 34.492H8.55317C9.65774 34.492 10.5532 35.3874 10.5532 36.492V38C10.5532 39.1046 11.4486 40 12.5532 40H13.4445C14.5491 40 15.4445 39.1046 15.4445 38V36.492C15.4445 35.3874 16.3399 34.492 17.4445 34.492H18.955C20.0595 34.492 20.955 33.5966 20.955 32.492V31.6007C20.955 30.4961 20.0595 29.6007 18.955 29.6007H17.4445C16.34 29.6007 15.4445 28.7052 15.4445 27.6007V25.4647C21.3705 24.3224 25.8488 19.1079 25.8488 12.8487C25.8488 5.75327 20.0956 0 13.0001 0ZM13.0001 5.10927C17.2745 5.10927 20.7396 8.57437 20.7396 12.8487C20.7396 17.1231 17.2745 20.5882 13.0001 20.5882C8.7257 20.5882 5.26063 17.1231 5.26063 12.8487C5.26063 8.57437 8.72573 5.10927 13.0001 5.10927Z" fill="#FF8787"/>
</svg>
