<svg xmlns="http://www.w3.org/2000/svg" width="1111" height="409" fill="none"><g clip-path="url(#a)"><path fill="url(#b)" d="M943.271 53.834c14.043 5.851 27.305 12.873 40.177 21.065 86.202 53.833 140.812 158.77 124.822 259.026-16.38 101.815-124.042 246.542-230.53 267.607-34.716 7.022-70.212-2.73-104.147-13.263-56.95-17.554-110.389-46.032-166.559-62.416-21.843-6.241-45.637-7.802-66.701.78-36.666 14.824-45.638 46.812-61.24 79.191-17.553 36.669-47.198 67.487-83.085 86.602-73.722 39.009-168.898 20.675-237.16-21.456C57.431 608.554 21.155 485.673 54.701 374.105c8.581-28.868 22.233-57.345 44.857-77.63 38.617-35.109 96.737-41.35 147.445-28.477 35.106 8.972 67.092 26.136 97.517 44.861 24.964 15.604 47.978 37.06 78.793 37.06 62.411.39 81.524-79.971 101.417-124.832 26.135-59.295 70.212-111.178 124.822-145.897 88.155-56.564 197.763-66.317 293.719-25.356Z"/><path fill="url(#c)" d="M943.304 54.07c14.036 5.85 27.292 12.871 40.158 21.062 86.168 53.822 140.748 158.738 124.758 258.973-16.37 101.795-123.978 246.492-230.417 267.553-34.699 7.02-70.179-2.73-104.099-13.261-56.923-17.55-110.337-46.022-166.48-62.403-21.834-6.24-45.617-7.8-66.671.78-36.649 14.821-45.616 46.803-61.211 79.174-17.545 36.662-47.176 67.474-83.046 86.585-73.688 39.002-168.82 20.671-237.049-21.451-101.37-62.404-137.63-185.26-104.1-296.805 8.578-28.862 22.224-57.333 44.837-77.614 38.599-35.102 96.692-41.342 147.377-28.472 35.089 8.971 67.06 26.132 97.471 44.853 24.952 15.6 47.955 37.051 78.756 37.051 62.382.39 81.486-79.954 101.37-124.806 26.122-59.283 70.179-111.155 124.763-145.867 88.114-56.553 197.671-66.303 293.583-25.351Z"/><path fill="url(#d)" d="M24.666 855.097c-176.31-133.024-73.333-425.988 96.346-515.711 63.581-33.549 137.693-46.422 209.075-37.06 64.361 8.583 144.715 30.428 210.636 5.462 49.929-19.115 72.943-66.317 99.077-109.228 72.552-119.37 255.493-141.606 346.379-28.477 33.541 41.741 47.201 99.865 30.811 150.968-38.613 118.59-168.115 67.877-241.447 131.464-29.255 25.356-37.056 76.069-54.219 110.008-17.553 34.718-39.007 67.877-62.021 99.475-48.368 66.707-107.268 127.562-175.139 174.764-135.353 94.404-304.642 122.491-447.796 26.917-3.901-2.731-7.802-5.461-11.703-8.582Z"/><path fill="url(#e)" d="M24.666 855.097c-176.31-133.024-73.333-425.988 96.346-515.711 63.581-33.549 137.693-46.422 209.075-37.06 64.361 8.583 144.715 30.428 210.636 5.462 49.929-19.115 72.943-66.317 99.077-109.228 72.552-119.37 255.493-141.606 346.379-28.477 33.541 41.741 47.201 99.865 30.811 150.968-38.613 118.59-168.115 67.877-241.447 131.464-29.255 25.356-37.056 76.069-54.219 110.008-17.553 34.718-39.007 67.877-62.021 99.475-48.368 66.707-107.268 127.562-175.139 174.764-135.353 94.404-304.642 122.491-447.796 26.917-3.901-2.731-7.802-5.461-11.703-8.582Z"/><path fill="url(#f)" d="M455.5 209c-17.397 0-31.5-14.103-31.5-31.5s14.103-31.5 31.5-31.5 31.5 14.103 31.5 31.5-14.103 31.5-31.5 31.5Z"/></g><defs><linearGradient id="b" x1="-17.152" x2="1460.73" y1="727.246" y2="-79.828" gradientUnits="userSpaceOnUse"><stop stop-color="#FF9370"/><stop offset="1" stop-color="#FFDF00"/></linearGradient><linearGradient id="d" x1="1003.01" x2="54.837" y1="-400.149" y2="1116.36" gradientUnits="userSpaceOnUse"><stop stop-color="#FFDF00"/><stop offset="1" stop-color="#FF9370"/></linearGradient><linearGradient id="f" x1="381.913" x2="532.113" y1="229.344" y2="123.255" gradientUnits="userSpaceOnUse"><stop stop-color="#EC4C76"/><stop offset=".518" stop-color="#FEBB40"/><stop offset="1" stop-color="#fff"/></linearGradient><radialGradient id="c" cx="0" cy="0" r="1" gradientTransform="matrix(215.25674 1186.91869 -1106.58905 200.68834 581.764 -77.07)" gradientUnits="userSpaceOnUse"><stop stop-color="#FEBB40"/><stop offset=".558" stop-color="#EC4C76"/><stop offset=".973" stop-color="#D60B52"/></radialGradient><radialGradient id="e" cx="0" cy="0" r="1" gradientTransform="rotate(-122.48 407.678 -118.343) scale(1284.19 2158.72)" gradientUnits="userSpaceOnUse"><stop stop-color="#FEBB40"/><stop offset=".558" stop-color="#EC4C76"/><stop offset=".973" stop-color="#D60B52"/></radialGradient><clipPath id="a"><path fill="#fff" d="M1111 0H-67v538h1178z"/></clipPath></defs></svg>