<svg xmlns="http://www.w3.org/2000/svg" width="320" height="456" fill="none"><path fill="url(#a)" d="M-33.847 431.439C-134.039 355.823-75.52 189.292 20.904 138.29c36.131-19.07 78.247-26.387 118.812-21.066 36.574 4.879 82.237 17.297 119.698 3.105 28.373-10.866 41.451-37.697 56.303-62.089 41.229-67.854 145.19-80.494 196.837-16.188 19.063 23.727 26.821 56.768 17.512 85.816-21.945 67.411-95.537 38.584-137.21 74.729-16.625 14.413-21.058 43.24-30.812 62.532-9.974 19.736-22.166 38.584-35.244 56.545-27.486 37.919-60.958 72.511-99.527 99.343-76.917 53.662-173.12 69.628-254.47 15.3-2.217-1.552-4.433-3.104-6.65-4.878Z"/><defs><radialGradient id="a" cx="0" cy="0" r="1" gradientTransform="matrix(-391.89344 -615.78965 1035.01688 -658.69298 364.949 37.466)" gradientUnits="userSpaceOnUse"><stop stop-color="#FEBB40"/><stop offset=".558" stop-color="#EC4C76"/><stop offset=".973" stop-color="#D60B52"/></radialGradient></defs></svg>