<svg xmlns="http://www.w3.org/2000/svg" width="26" height="24" fill="none"><g filter="url(#a)"><path fill="#F59256" d="M7 1C3.687 1 1 3.734 1 7.106c0 2.723 1.05 9.185 11.386 15.717a1.158 1.158 0 0 0 1.228 0C23.95 16.29 25 9.829 25 7.106 25 3.734 22.313 1 19 1s-6 3.7-6 3.7S10.313 1 7 1Z"/><path stroke="#F59256" stroke-linecap="round" stroke-linejoin="round" stroke-width="2" d="M7 1C3.687 1 1 3.734 1 7.106c0 2.723 1.05 9.185 11.386 15.717a1.158 1.158 0 0 0 1.228 0C23.95 16.29 25 9.829 25 7.106 25 3.734 22.313 1 19 1s-6 3.7-6 3.7S10.313 1 7 1Z"/></g><defs><filter id="a" width="34" height="32" x="-4" y="-4" color-interpolation-filters="sRGB" filterUnits="userSpaceOnUse"><feFlood flood-opacity="0" result="BackgroundImageFix"/><feGaussianBlur in="BackgroundImageFix" stdDeviation="2"/><feComposite in2="SourceAlpha" operator="in" result="effect1_backgroundBlur_28_509"/><feBlend in="SourceGraphic" in2="effect1_backgroundBlur_28_509" result="shape"/></filter></defs></svg>