<svg xmlns="http://www.w3.org/2000/svg" width="54" height="54" fill="none"><g filter="url(#a)"><path fill="#23C2EF" d="M34.7735 0c-1.1046 0-2 .89543-2 2v3.51869c0 1.10457.8954 2 2 2h6.2573L30.1466 18.2628c-3.054-1.964-6.6944-3.1038-10.6031-3.1038C8.75052 15.159 0 23.8531 0 34.5786-.00004528 45.3042 8.75052 54 19.5435 54c10.793 0 19.5419-8.6958 19.5419-19.4214 0-4.0768-1.2636-7.8601-3.4235-10.984l10.7014-10.6345v6.1337c0 1.1045.8954 2 2 2h3.566c1.1046 0 1.9999-.895 2.002-1.9996.0103-5.473.0575-11.63272.067-17.09503C54.0002.894746 53.1048 0 52.0003 0H34.7735Zm-15.23 22.9759c6.4489 0 11.6758 5.1942 11.6758 11.6027 0 6.4086-5.2269 11.6045-11.6758 11.6045-6.4488 0-11.6775-5.1959-11.6775-11.6045 0-6.4085 5.2286-11.6027 11.6775-11.6027Z"/></g><defs><filter id="a" width="54.9985" height="59" x="-1" y="-3" color-interpolation-filters="sRGB" filterUnits="userSpaceOnUse"><feFlood flood-opacity="0" result="BackgroundImageFix"/><feBlend in="SourceGraphic" in2="BackgroundImageFix" result="shape"/><feColorMatrix in="SourceAlpha" result="hardAlpha" values="0 0 0 0 0 0 0 0 0 0 0 0 0 0 0 0 0 0 127 0"/><feOffset dy="-3"/><feGaussianBlur stdDeviation="2"/><feComposite in2="hardAlpha" k2="-1" k3="1" operator="arithmetic"/><feColorMatrix values="0 0 0 0 0 0 0 0 0 0 0 0 0 0 0 0 0 0 0.25 0"/><feBlend in2="shape" result="effect1_innerShadow_65_1533"/><feColorMatrix in="SourceAlpha" result="hardAlpha" values="0 0 0 0 0 0 0 0 0 0 0 0 0 0 0 0 0 0 127 0"/><feOffset dx="-1" dy="2"/><feGaussianBlur stdDeviation="1.5"/><feComposite in2="hardAlpha" k2="-1" k3="1" operator="arithmetic"/><feColorMatrix values="0 0 0 0 1 0 0 0 0 1 0 0 0 0 1 0 0 0 0.57 0"/><feBlend in2="effect1_innerShadow_65_1533" result="effect2_innerShadow_65_1533"/></filter></defs></svg>