<svg aria-hidden="true" style="position: absolute; width: 0; height: 0; overflow: hidden;" version="1.1" xmlns="http://www.w3.org/2000/svg" xmlns:xlink="http://www.w3.org/1999/xlink">
<defs>
<symbol id="icon-photo" viewBox="0 0 30 32">
<path fill="#f59256" style="fill: var(--color1, #f59256)" d="M15.158 12.983c-2.519 0-4.561 2.042-4.561 4.561s2.042 4.562 4.561 4.562 4.561-2.042 4.561-4.562c0-2.519-2.042-4.561-4.561-4.561z"></path>
<path fill="#f59256" style="fill: var(--color1, #f59256)" d="M11.298 0.351c-1.938 0-3.509 1.571-3.509 3.509v0.251c0 0.637-0.516 1.153-1.153 1.153-3.627 0-6.566 2.94-6.566 6.566v6.471c0 2.25-0 4.014 0.134 5.424 0.137 1.437 0.42 2.613 1.055 3.65 0.665 1.086 1.578 1.999 2.664 2.664 1.037 0.635 2.213 0.919 3.65 1.055 1.409 0.134 3.173 0.134 5.424 0.134h4.321c2.25 0 4.015 0 5.424-0.134 1.436-0.137 2.613-0.42 3.65-1.055 1.086-0.665 1.999-1.578 2.664-2.664 0.635-1.037 0.919-2.213 1.055-3.65 0.134-1.409 0.134-3.173 0.134-5.424v-6.471c0-3.627-2.94-6.566-6.566-6.566-0.637 0-1.153-0.516-1.153-1.153v-0.251c0-1.938-1.571-3.509-3.509-3.509h-7.719zM8.491 17.544c0-3.682 2.985-6.667 6.667-6.667s6.667 2.985 6.667 6.667c0 3.682-2.985 6.667-6.667 6.667s-6.667-2.985-6.667-6.667zM23.579 13.334c-0.775 0-1.403-0.628-1.403-1.403s0.628-1.404 1.403-1.404c0.775 0 1.404 0.628 1.404 1.404s-0.628 1.403-1.404 1.403z"></path>
</symbol>
<symbol id="icon-heart" viewBox="0 0 35 32">
<path fill="#fff" style="fill: var(--color2, #fff)" opacity="0.6000000238418579" d="M9.333 1.333c-4.418 0-8 3.645-8 8.142 0 3.63 1.4 12.246 15.181 20.955 0.247 0.154 0.53 0.236 0.819 0.236s0.572-0.082 0.819-0.236c13.781-8.709 15.181-17.325 15.181-20.955 0-4.497-3.582-8.142-8-8.142s-8 4.935-8 4.935c0 0-3.582-4.935-8-4.935z"></path>
<path fill="none" stroke="#f59256" style="stroke: var(--color1, #f59256)" stroke-linejoin="round" stroke-linecap="round" stroke-miterlimit="4" stroke-width="2.6667" d="M9.333 1.333c-4.418 0-8 3.645-8 8.142 0 3.63 1.4 12.246 15.181 20.955 0.247 0.154 0.53 0.236 0.819 0.236s0.572-0.082 0.819-0.236c13.781-8.709 15.181-17.325 15.181-20.955 0-4.497-3.582-8.142-8-8.142s-8 4.935-8 4.935c0 0-3.582-4.935-8-4.935z"></path>
</symbol>
<symbol id="icon-plus" viewBox="0 0 32 32">
<path fill="#fff" style="fill: var(--color2, #fff)" d="M16 30.222v0zM16 16v0zM16 16v0zM16 16v0z"></path>
<path fill="none" stroke="#fff" style="stroke: var(--color2, #fff)" stroke-linejoin="miter" stroke-linecap="round" stroke-miterlimit="4" stroke-width="2.6667" d="M16 30.222v-14.222M16 16v-14.222M16 16h14.222M16 16h-14.222"></path>
</symbol>
<symbol id="icon-plus1" viewBox="0 0 32 32">
<path fill="#fff" style="fill: var(--color2, #fff)" d="M16 30.222v0zM16 16v0zM16 16v0zM16 16v0z"></path>
<path fill="none" stroke="#fff" style="stroke: var(--color2, #fff)" stroke-linejoin="miter" stroke-linecap="round" stroke-miterlimit="4" stroke-width="2.6667" d="M16 30.222v-14.222M16 16v-14.222M16 16h14.222M16 16h-14.222"></path>
</symbol>
<symbol id="icon-search" viewBox="0 0 32 32">
<path d="M22.222 19.556h-1.404l-0.498-0.48c1.742-2.027 2.791-4.658 2.791-7.52 0-6.382-5.173-11.556-11.556-11.556s-11.556 5.173-11.556 11.556c0 6.382 5.173 11.556 11.556 11.556 2.862 0 5.493-1.049 7.52-2.791l0.48 0.498v1.404l8.889 8.871 2.649-2.649-8.871-8.889zM11.556 19.556c-4.427 0-8-3.573-8-8s3.573-8 8-8c4.427 0 8 3.573 8 8s-3.573 8-8 8z"></path>
</symbol>
<symbol id="icon-account" viewBox="0 0 32 32">
<path fill="#fff" style="fill: var(--color2, #fff)" d="M16 1.186c-8.178 0-14.815 6.637-14.815 14.815s6.637 14.815 14.815 14.815c8.178 0 14.815-6.637 14.815-14.815s-6.637-14.815-14.815-14.815zM16 7.112c2.859 0 5.185 2.326 5.185 5.185s-2.326 5.185-5.185 5.185c-2.859 0-5.185-2.326-5.185-5.185s2.326-5.185 5.185-5.185zM16 27.852c-3.007 0-6.563-1.215-9.096-4.267 2.595-2.036 5.798-3.143 9.096-3.143s6.501 1.107 9.096 3.143c-2.533 3.052-6.089 4.267-9.096 4.267z"></path>
</symbol>
<symbol id="icon-male" viewBox="0 0 32 32">
<path fill="#23c2ef" style="fill: var(--color3, #23c2ef)" d="M21.199 0c-0.982 0-1.778 0.796-1.778 1.778v0.9c0 0.982 0.796 1.778 1.778 1.778h3.115l-6.45 6.367c-1.81-1.164-3.967-1.839-6.283-1.839-6.396 0-11.581 5.152-11.581 11.508s5.186 11.509 11.581 11.509c6.396 0 11.58-5.153 11.58-11.509 0-2.416-0.749-4.658-2.029-6.509l6.342-6.302v3.042c0 0.982 0.796 1.778 1.778 1.778h0.928c0.982 0 1.778-0.796 1.78-1.777 0.008-2.891 0.030-6.059 0.037-8.945 0.002-0.982-0.794-1.777-1.775-1.777h-9.023zM11.581 13.615c3.822 0 6.919 3.078 6.919 6.876s-3.097 6.877-6.919 6.877c-3.822 0-6.92-3.079-6.92-6.877s3.098-6.876 6.92-6.876z"></path>
</symbol>
<symbol id="icon-female" viewBox="0 0 32 32">
<path fill="#ff8787" style="fill: var(--color4, #ff8787)" d="M16 0c-5.676 0-10.279 4.603-10.279 10.279 0 4.546 2.953 8.403 7.044 9.759 0.728 0.241 1.277 0.887 1.277 1.654v0.388c0 0.884-0.716 1.6-1.6 1.6h-1.208c-0.884 0-1.6 0.716-1.6 1.6v0.713c0 0.884 0.716 1.6 1.6 1.6h1.208c0.884 0 1.6 0.716 1.6 1.6v1.206c0 0.884 0.716 1.6 1.6 1.6h0.713c0.884 0 1.6-0.716 1.6-1.6v-1.206c0-0.884 0.716-1.6 1.6-1.6h1.208c0.884 0 1.6-0.716 1.6-1.6v-0.713c0-0.884-0.716-1.6-1.6-1.6h-1.208c-0.884 0-1.6-0.716-1.6-1.6v-1.709c4.741-0.914 8.323-5.085 8.323-10.093 0-5.676-4.603-10.279-10.279-10.279zM16 4.087c3.42 0 6.192 2.772 6.192 6.192s-2.772 6.192-6.192 6.192-6.192-2.772-6.192-6.192c0-3.419 2.772-6.192 6.192-6.192z"></path>
</symbol>
<symbol id="icon-plus-black" viewBox="0 0 32 32">
<path stroke-linejoin="miter" stroke-linecap="round" stroke-miterlimit="4" stroke-width="1.2549" d="M16 30.849v-14.85M16 16v-14.85M16 16h14.85M16 16h-14.85"></path>
</symbol>
<symbol id="icon-cross" viewBox="0 0 32 32">
<path d="M18.193 15.999l12.896-12.896c0.255-0.298 0.388-0.68 0.373-1.072s-0.178-0.763-0.455-1.040-0.648-0.439-1.040-0.454c-0.392-0.015-0.774 0.118-1.072 0.373l-12.895 12.896-12.896-12.911c-0.293-0.293-0.69-0.457-1.104-0.457s-0.812 0.165-1.104 0.457c-0.293 0.293-0.457 0.69-0.457 1.104s0.165 0.812 0.457 1.104l12.911 12.896-12.911 12.896c-0.163 0.139-0.295 0.311-0.388 0.504s-0.146 0.403-0.154 0.617c-0.008 0.214 0.028 0.428 0.106 0.628s0.197 0.381 0.348 0.532c0.152 0.152 0.333 0.27 0.532 0.348s0.413 0.114 0.627 0.106c0.214-0.008 0.424-0.061 0.617-0.154s0.365-0.226 0.504-0.388l12.911-12.896 12.895 12.896c0.298 0.255 0.68 0.388 1.072 0.373s0.763-0.177 1.040-0.454 0.439-0.648 0.455-1.040c0.015-0.391-0.118-0.774-0.373-1.072l-12.896-12.896z"></path>
</symbol>
<symbol id="icon-pen" viewBox="0 0 32 32">
<path fill="#f59256" style="fill: var(--color1, #f59256)" d="M3.061 30.454c-0.21-0-0.418-0.044-0.61-0.129s-0.365-0.209-0.506-0.364c-0.144-0.154-0.254-0.337-0.323-0.536s-0.094-0.411-0.075-0.621l0.371-4.082 17.148-17.142 5.359 5.358-17.144 17.141-4.082 0.371c-0.046 0.004-0.092 0.006-0.138 0.006zM25.494 11.865l-5.358-5.358 3.214-3.214c0.141-0.141 0.308-0.253 0.492-0.329s0.381-0.115 0.58-0.115c0.199 0 0.396 0.039 0.58 0.115s0.351 0.188 0.492 0.329l3.214 3.214c0.141 0.141 0.253 0.308 0.329 0.492s0.116 0.381 0.116 0.58c0 0.199-0.039 0.396-0.116 0.58s-0.188 0.351-0.329 0.492l-3.214 3.214z"></path>
</symbol>
<symbol id="icon-log-out" viewBox="0 0 32 32">
<path fill="#f59256" style="fill: var(--color1, #f59256); stroke: var(--color1, #f59256)" stroke="#f59256" stroke-linejoin="miter" stroke-linecap="butt" stroke-miterlimit="4" stroke-width="1.7778" d="M27.209 11.682l0-0c0.141-0.141 0.369-0.141 0.511 0l2.799 2.799c0.871 0.871 0.871 2.291 0 3.162l-2.799 2.799c-0.071 0.071-0.162 0.106-0.255 0.106s-0.184-0.035-0.255-0.106h-0c-0.141-0.141-0.141-0.369 0-0.51l3.508-3.509h-17.155c-0.2 0-0.361-0.162-0.361-0.361s0.162-0.361 0.361-0.361h17.155l-3.508-3.509c-0.141-0.141-0.141-0.369 0-0.51zM21.736 24.5v2.5c0 2.266-1.845 4.111-4.111 4.111h-12.563c-2.266 0-4.111-1.845-4.111-4.111v-22c0-2.266 1.845-4.111 4.111-4.111h12.563c2.266 0 4.111 1.845 4.111 4.111v2.5c0 0.2-0.162 0.361-0.361 0.361s-0.361-0.162-0.361-0.361v-2.5c0-1.869-1.519-3.389-3.389-3.389h-12.563c-1.869 0-3.389 1.52-3.389 3.389v22c0 1.869 1.52 3.389 3.389 3.389h12.563c1.869 0 3.389-1.52 3.389-3.389v-2.5c0-0.199 0.162-0.361 0.361-0.361s0.361 0.162 0.361 0.361z"></path>
</symbol>
<symbol id="icon-pen2" viewBox="0 0 32 32">
<path d="M3.061 30.454c-0.21-0-0.418-0.044-0.61-0.129s-0.365-0.209-0.506-0.364c-0.144-0.154-0.254-0.337-0.323-0.536s-0.094-0.411-0.075-0.621l0.371-4.082 17.148-17.142 5.359 5.358-17.144 17.141-4.082 0.371c-0.046 0.004-0.092 0.006-0.138 0.006zM25.494 11.865l-5.358-5.358 3.214-3.214c0.141-0.141 0.308-0.253 0.492-0.329s0.381-0.115 0.58-0.115c0.199 0 0.396 0.039 0.58 0.115s0.351 0.188 0.492 0.329l3.214 3.214c0.141 0.141 0.253 0.308 0.329 0.492s0.116 0.381 0.116 0.58c0 0.199-0.039 0.396-0.116 0.58s-0.188 0.351-0.329 0.492l-3.214 3.214z"></path>
</symbol>
<symbol id="icon-delete" viewBox="0 0 32 32">
<path d="M13.778 4.889h4.444c0-0.589-0.234-1.155-0.651-1.571s-0.982-0.651-1.571-0.651c-0.589 0-1.155 0.234-1.571 0.651s-0.651 0.982-0.651 1.571zM11.556 4.889c0-1.179 0.468-2.309 1.302-3.143s1.964-1.302 3.143-1.302c1.179 0 2.309 0.468 3.143 1.302s1.302 1.964 1.302 3.143h8.889c0.295 0 0.577 0.117 0.786 0.325s0.326 0.491 0.326 0.786-0.117 0.577-0.326 0.786c-0.208 0.208-0.491 0.325-0.786 0.325h-1.253l-2.678 19.64c-0.181 1.331-0.839 2.551-1.851 3.434s-2.31 1.37-3.653 1.37h-7.796c-1.343 0-2.641-0.487-3.653-1.37s-1.67-2.103-1.851-3.434l-2.678-19.64h-1.253c-0.295 0-0.577-0.117-0.786-0.325s-0.325-0.491-0.325-0.786c0-0.295 0.117-0.577 0.325-0.786s0.491-0.325 0.786-0.325h8.889zM13.778 12.667c0-0.295-0.117-0.577-0.325-0.786s-0.491-0.325-0.786-0.325c-0.295 0-0.577 0.117-0.786 0.325s-0.325 0.491-0.325 0.786v11.111c0 0.295 0.117 0.577 0.325 0.786s0.491 0.326 0.786 0.326 0.577-0.117 0.786-0.326c0.208-0.208 0.325-0.491 0.325-0.786v-11.111zM19.333 11.556c-0.295 0-0.577 0.117-0.786 0.325s-0.326 0.491-0.326 0.786v11.111c0 0.295 0.117 0.577 0.326 0.786s0.491 0.326 0.786 0.326 0.577-0.117 0.786-0.326c0.209-0.208 0.326-0.491 0.326-0.786v-11.111c0-0.295-0.117-0.577-0.326-0.786s-0.491-0.325-0.786-0.325z"></path>
</symbol>
<symbol id="icon-plus2" viewBox="0 0 32 32">
<path fill="none" stroke="#fff" style="stroke: var(--color2, #fff)" stroke-linejoin="miter" stroke-linecap="round" stroke-miterlimit="4" stroke-width="3.5556" d="M16 30.222v-14.222M16 16v-14.222M16 16h14.222M16 16h-14.222"></path>
</symbol>
<symbol id="icon-heart2" viewBox="0 0 32 32">
<path fill="#f59256" style="fill: var(--color1, #f59256); stroke: var(--color1, #f59256)" stroke="#f59256" stroke-linejoin="round" stroke-linecap="round" stroke-miterlimit="4" stroke-width="3.7647" d="M9.726 4.706c-3.465 0-6.274 2.781-6.274 6.212 0 2.77 1.098 9.343 11.906 15.987 0.194 0.118 0.416 0.18 0.643 0.18s0.449-0.062 0.643-0.18c10.808-6.645 11.906-13.218 11.906-15.987 0-3.431-2.81-6.212-6.274-6.212s-6.275 3.765-6.275 3.765-2.81-3.765-6.274-3.765z"></path>
</symbol>
<symbol id="icon-ok" viewBox="0 0 32 32">
<path fill="#f59256" style="fill: var(--color1, #f59256)" d="M29.224 7.023c1 0.952 1.039 2.534 0.087 3.534l-15.867 16.667c-0.472 0.496-1.126 0.776-1.811 0.776s-1.339-0.281-1.811-0.776l-7.467-7.843c-0.952-1-0.913-2.582 0.087-3.534s2.582-0.913 3.534 0.087l5.656 5.941 14.056-14.765c0.952-1 2.534-1.039 3.534-0.087z"></path>
</symbol>
<symbol id="icon-menu" viewBox="0 0 32 32">
<path d="M0 26.667h32v-3.556h-32v3.556zM0 17.778h32v-3.556h-32v3.556zM0 5.333v3.556h32v-3.556h-32z"></path>
</symbol>
</defs>
</svg>
