<svg xmlns="http://www.w3.org/2000/svg" width="92" height="89" fill="none"><path fill="url(#a)" fill-rule="evenodd" d="M64.107.573c8.684-2.28 18.417 2.51 23.33 9.708 4.693 6.761 5.97 16.291 2.6 23.864-1.23 2.677-3.194 5.045-5.09 7.33-.292.353-.584.704-.87 1.055-2.53 3.258-4.916 6.864-6.389 10.625-1.578 3.98-2.127 8.302-2.665 12.539l-.21 1.64c-.275 1.8-.548 3.6-.797 5.403.02 2.15-.221 4.3-.78 6.37-.367 2.585-1.044 5.128-2.683 7.185-1.506 1.981-3.713 2.697-6.02 2.664-.684.081-1.399.053-2.141-.108a10.695 10.695 0 0 1-2.618-.877c-.238-.091-.47-.187-.7-.287-3.729-1.67-6.802-4.486-9.161-7.79-1.024-.897-2.055-1.786-3.086-2.676-.41-.367-.818-.737-1.227-1.109-3.165-2.868-6.393-5.795-10.18-7.791-3.565-1.899-7.723-3.086-11.763-3.916-.446-.08-.896-.157-1.349-.235-2.925-.503-5.957-1.024-8.632-2.257C6.19 58.35.962 50.28.131 42.09c-.95-8.663 3.327-18.631 11.406-22.548 8.318-4.034 18.536-1.542 26.378 2.137a68.456 68.456 0 0 1 5.418 2.758 68.454 68.454 0 0 1 2.127-5.087C49.024 11.456 55.165 2.917 64.107.573Z" clip-rule="evenodd"/><defs><linearGradient id="a" x1="86.509" x2="-54.221" y1="39.896" y2="71.635" gradientUnits="userSpaceOnUse"><stop stop-color="#EC4C76"/><stop offset=".518" stop-color="#FEBB40"/><stop offset="1" stop-color="#fff"/></linearGradient></defs></svg>